<svg width="136" height="156" viewBox="0 0 136 156" fill="none" xmlns="http://www.w3.org/2000/svg">
<path d="M71.34 149.3L108.64 135L71.12 155.47L71.34 149.3Z" fill="white"/>
<path d="M35 138.39L71.34 149.3L71.12 155.47L35 138.39Z" fill="white"/>
<path d="M2.11487 64.0234L69.8049 130.003L133.875 59.6934L107.535 31.5234L67.4749 19.0734L34.4549 32.8534L2.11487 64.0234Z" fill="white" stroke="#003785" stroke-width="2" stroke-miterlimit="10"/>
<path d="M64.8849 0.093429C120.575 -1.59657 135.375 49.7434 133.865 59.1934C133.865 59.1934 106.675 37.6834 95.3249 69.0334C95.3249 69.0334 92.1949 49.3134 68.6949 49.7534C46.9349 50.1634 45.2049 70.7634 45.2049 70.7634C45.2049 70.7634 30.9449 39.2934 2.32491 64.2134C2.32491 64.2134 -0.0250773 49.9734 7.91492 35.8034C13.9749 24.9934 31.1149 1.11343 64.8849 0.093429Z" fill="#41BCE1"/>
<path d="M69.485 49.7634C75.825 49.5934 91.305 50.7934 95.325 68.9634C95.125 73.0634 92.315 82.7134 92.315 82.7134L69.815 130.003L46.795 80.6534C46.795 80.6534 44.765 73.7434 45.465 69.2234C46.165 64.7034 50.455 50.2834 69.485 49.7734V49.7634Z" fill="white" stroke="#003785" stroke-width="2" stroke-miterlimit="10"/>
<path d="M45.6249 76.3534C45.0849 76.3534 44.6449 75.9334 44.6249 75.3934L42.9249 26.9034C42.9049 26.3534 43.3349 25.8834 43.8849 25.8734C44.4249 25.8334 44.9049 26.2834 44.9149 26.8334L46.6149 75.3234C46.6349 75.8734 46.2049 76.3434 45.6549 76.3534C45.6449 76.3534 45.6349 76.3534 45.6149 76.3534H45.6249Z" fill="#003785"/>
<path d="M95.2249 70.4234C94.6849 70.4234 94.2449 69.9934 94.2249 69.4534L92.8549 25.5634C92.8349 25.0134 93.2749 24.5534 93.8249 24.5334C94.3649 24.5034 94.8349 24.9534 94.8549 25.5034L96.2249 69.3934C96.2449 69.9434 95.8049 70.4034 95.2549 70.4234H95.2249Z" fill="#003785"/>
<path d="M84.36 122L73 133.16L95.92 140.73L76.98 132.16L84.36 122Z" fill="white"/>
<path d="M54.56 122L65.92 133.16L43 140.73L61.94 132.16L54.56 122Z" fill="white"/>
</svg>
